<svg id="illustration" xmlns="http://www.w3.org/2000/svg" viewBox="0 0 350 350"><defs><style>.cls-1{fill:none;}.cls-2{fill:#ececeb;}.cls-3{clip-path:url(#clip-path);}.cls-4{fill:#ccad14;}.cls-10,.cls-11,.cls-12,.cls-13,.cls-15,.cls-4,.cls-5,.cls-6,.cls-7,.cls-8,.cls-9{fill-rule:evenodd;}.cls-5{fill:#e5c828;}.cls-6{fill:#755800;}.cls-7{fill:#bf8f00;}.cls-8{fill:#856400;}.cls-9{fill:#dfbda5;}.cls-10{fill:#8b6651;}.cls-11{fill:#c3987b;}.cls-12{fill:#e8cab6;}.cls-13,.cls-14{fill:#b58b00;}.cls-15{fill:#474747;}.cls-16{fill:#2b2b2b;}</style><clipPath id="clip-path"><circle class="cls-1" cx="175" cy="175" r="175"/></clipPath></defs><circle class="cls-2" cx="175" cy="175" r="175"/><g class="cls-3"><polygon class="cls-4" points="82.31 170.58 170.04 149.31 261.42 122.49 260.16 109.33 252.71 90.08 165.8 129.48 82.31 170.58"/><polygon class="cls-5" points="252.71 90.08 159.96 113.07 66.28 143.05 70.27 155.09 82.31 170.58 252.71 90.08"/><polygon class="cls-6" points="149.71 93.63 141.25 121.75 178.35 111.21 149.71 93.63"/><polygon class="cls-6" points="252.71 90.08 267.55 95.04 283.72 106.81 264.86 136.61 260.7 128.12 261.42 122.49 252.71 90.08"/><polygon class="cls-4" points="252.71 90.08 250.8 74.94 254.44 55.24 273.4 83.44 283.72 106.81 252.71 90.08"/><polygon class="cls-7" points="254.44 55.24 304.28 86.25 283.72 106.81 254.44 55.24"/><polygon class="cls-8" points="252.71 90.08 254.44 55.24 255.49 36.07 219.41 73.99 220.29 99.3 252.71 90.08"/><polygon class="cls-7" points="244.12 49.08 203.22 22.14 196.14 40.62 193.47 55.24 207.95 67.8 221.69 74.75 244.12 49.08"/><polygon class="cls-4" points="221.69 74.75 193.47 55.24 184.65 77.24 178.35 111.21 220.29 99.3 221.69 74.75"/><polygon class="cls-4" points="203.22 22.14 146.07 52.45 177.32 55.85 193.47 55.24 203.22 22.14"/><polygon class="cls-7" points="193.47 55.24 146.07 52.45 156.12 75.09 178.35 111.21 193.47 55.24"/><polygon class="cls-6" points="57.88 182.18 93.86 190.13 88.23 177.5 82.31 170.58 70.37 173.46 57.88 182.18"/><polygon class="cls-4" points="178.35 111.21 151.23 96.29 134.31 89.06 124.12 81.37 128.39 64.81 135.22 51.6 139.46 40.26 146.07 52.45 178.35 111.21"/><polygon class="cls-7" points="124.12 81.37 108.51 76.42 92.94 64.13 89.63 47.92 135.22 51.6 124.12 81.37"/><polygon class="cls-8" points="124.12 81.37 92.94 64.13 77.25 85.03 87.77 105.46 105.41 131.93 119.91 100.35 124.12 81.37"/><polygon class="cls-8" points="52.03 147.29 44.94 188.32 82.31 170.58 66.28 143.05 59.47 142.68 52.03 147.29"/><polygon class="cls-7" points="77.25 85.03 63.12 101.17 58.09 113.26 74.93 120.67 105.41 131.93 77.25 85.03"/><polygon class="cls-4" points="77.25 85.03 27.42 101.76 58.09 113.26 77.25 85.03"/><polygon class="cls-4" points="58.09 113.26 30.56 153.68 66.28 143.05 105.41 131.93 58.09 113.26"/><polygon class="cls-7" points="124.12 81.37 105.41 131.93 126.62 158.69 141.25 121.75 151.23 96.29 124.12 81.37"/><polygon class="cls-9" points="261.42 122.49 292.08 248.29 236.33 268.15 228.95 281.38 223.78 298.47 199.8 315.1 179.88 335.75 145.16 271.67 121.51 236.9 102.61 204.96 98.62 189.23 82.31 170.58 261.42 122.49"/><polygon class="cls-10" points="137.35 218.19 127.86 202.21 116.04 209.03 137.35 218.19"/><polygon class="cls-11" points="153.24 151.54 201.79 280.18 236.33 268.15 223.78 298.47 179.88 335.75 121.51 236.9 150.82 219.49 141.2 201.25 157.23 191.84 136.68 155.98 153.24 151.54"/><polygon class="cls-11" points="182.34 170.34 199.39 170.23 218.9 196.72 204.35 149.67 182.34 170.34"/><polygon class="cls-11" points="226.73 143.16 237.71 179.64 242.6 155.59 256.69 146.98 226.73 143.16"/><polygon class="cls-8" points="204.35 149.67 177.67 159.67 182.34 170.34 204.35 149.67"/><polygon class="cls-8" points="226.73 143.16 254.21 135.6 256.69 146.98 226.73 143.16"/><polygon class="cls-12" points="226.73 143.16 204.35 149.67 218.9 196.72 240.86 190.09 226.73 143.16"/><polygon class="cls-10" points="240.86 190.09 233.19 204.38 218.9 196.72 240.86 190.09"/><polygon class="cls-6" points="213.74 226.08 235.35 211.44 258.51 213 239.99 226.87 213.74 226.08"/><polygon class="cls-13" points="264.9 208.91 239.22 225.34 204.96 226.34 241.55 235.4 264.9 208.91"/><path class="cls-6" d="M153.57,217.85l19,32.06-32.05,19-19-32,32.06-19.05Zm-20.59,22,10.49,17.67L161.15,247l-10.5-17.67Z"/><rect class="cls-14" x="132.48" y="212.19" width="9.06" height="28.57" transform="translate(-96.47 101.77) rotate(-30.72)"/><polygon class="cls-8" points="136.68 155.98 157.23 191.84 141.2 201.25 132.83 187.65 102.61 204.96 82.31 170.58 136.68 155.98"/><polygon class="cls-10" points="236.33 268.15 189.28 284.53 223.78 298.47 236.33 268.15"/><polygon class="cls-15" points="223.78 298.47 261.92 311.23 284.77 334.49 278.2 355.82 261.51 380.6 116.24 384.27 98.86 369.61 85.64 351.63 118.28 310.82 155.71 294.81 179.88 335.75 223.78 298.47"/><polygon class="cls-7" points="261.92 311.23 261.51 380.6 237.64 357.95 240.5 304.06 261.92 311.23"/><polygon class="cls-7" points="136.99 302.81 140.93 363.26 116.24 384.27 118.28 310.82 136.99 302.81"/></g><circle class="cls-16" cx="200.72" cy="183.44" r="6.58"/><circle class="cls-16" cx="247.43" cy="168.05" r="6.58"/></svg>